<svg xmlns="http://www.w3.org/2000/svg" width="22" height="22" viewBox="0 0 22 22"><g fill-rule="evenodd"><path fill="#268bd2" d="m 7,2 10,0 c 3,0 4,1 4,4 l 0,12 c 0,3 -1,4 -4,4 L 7,22 C 4,22 3,21 3,18 L 3,6 C 3,3 4,2 7,2 z" transform="translate(-1 -1)"/><path fill="#fff" fill-opacity=".3" d="m 7,2 10,0 c 3,0 4,1 4,4 l 0,8 c 0,3 -1,4 -4,4 L 7,18 C 4,18 3,17 3,14 L 3,6 C 3,3 4,2 7,2 z" transform="translate(-1 -1)"/></g><g color="#000"><path fill="#fff" fill-opacity=".9" d="m 16.5,10 -4.5,5 -4.5,-5 2.5,0 0,-5 4,0 0,5 z" transform="translate(-1)"/></g></svg>