<svg xmlns="http://www.w3.org/2000/svg" xmlns:svg="http://www.w3.org/2000/svg" xmlns:xlink="http://www.w3.org/1999/xlink" id="svg2" width="22" height="22" version="1.1" viewBox="0 0 22 22"><metadata id="metadata98"/><defs id="defs4"><path id="SVGCleanerId_0" d="m 14,12 20,0 c 1.105,0 2,0.895 2,2 l 0,20 c 0,1.105 -0.895,2 -2,2 l -20,0 c -1.105,0 -2,-0.895 -2,-2 l 0,-20 c 0,-1.105 0.895,-2 2,-2 m 0,0"/></defs><use id="use72" width="100%" height="100%" x="0" y="0" fill="none" stroke="#af8566" stroke-dasharray="none" stroke-linecap="butt" stroke-linejoin="miter" stroke-miterlimit="4" stroke-opacity="1" stroke-width="2.483" transform="matrix(0.60416667,0,0,0.60416667,-3.5000001,-3.5000001)" xlink:href="#SVGCleanerId_0"/><use id="use74" width="100%" height="100%" x="0" y="0" fill="#fff4ab" fill-opacity="1" fill-rule="nonzero" stroke="none" transform="matrix(0.58333333,0,0,0.58333333,-2.9999999,-2.9999999)" xlink:href="#SVGCleanerId_0"/><path id="path84" fill="#e4d66a" fill-opacity="1" fill-rule="nonzero" stroke="none" d="m 4,14 14,0 0,1 -14,0 z"/><path id="path84-3" fill="#e4d66a" fill-opacity="1" fill-rule="nonzero" stroke="none" d="M 4.0000001,11 18,11 18,12 4.0000001,12 Z"/><path id="path84-3-9" fill="#e4d66a" fill-opacity="1" fill-rule="nonzero" stroke="none" d="M 4.0000001,8.0000002 18,8.0000002 18,9 4.0000001,9 Z"/><path id="path86" fill="#e6b2a9" fill-opacity="1" fill-rule="nonzero" stroke="none" d="M 8,4 9,4 9,18 8,18 Z"/></svg>