<svg xmlns="http://www.w3.org/2000/svg" xmlns:svg="http://www.w3.org/2000/svg" xmlns:xlink="http://www.w3.org/1999/xlink" id="svg2" width="96" height="96" version="1.1"><defs id="defs4"><linearGradient id="linearGradient3855"><stop id="stop3857" offset="0" stop-color="#000" stop-opacity="1"/><stop id="stop3859" offset="1" stop-color="#000" stop-opacity=".294"/></linearGradient><linearGradient id="linearGradient3833"><stop id="stop3835" offset="0" stop-color="#fdfeff" stop-opacity="1"/><stop id="stop3837" offset="1" stop-color="#dfe4e4" stop-opacity="1"/></linearGradient><linearGradient id="linearGradient3823"><stop id="stop3825" offset="0" stop-color="#49b7ef" stop-opacity="1"/><stop id="stop3827" offset="1" stop-color="#1d8de2" stop-opacity="1"/></linearGradient><linearGradient id="linearGradient3956"><stop id="stop3958" offset="0" stop-color="#f8f4e1" stop-opacity="1"/><stop id="stop3960" offset="1" stop-color="#eae5c8" stop-opacity="1"/></linearGradient><linearGradient id="linearGradient3915"><stop id="stop3917" offset="0" stop-color="#f8f4e1" stop-opacity="1"/><stop id="stop3919" offset="1" stop-color="#ad9e57" stop-opacity="1"/></linearGradient><linearGradient id="linearGradient3861"><stop id="stop3863" offset="0" stop-color="#000" stop-opacity="1"/><stop id="stop3865" offset="1" stop-color="#000" stop-opacity="0"/></linearGradient><linearGradient id="linearGradient3844"><stop id="stop3846" offset="0" stop-color="#000" stop-opacity=".392"/><stop id="stop3848" offset="1" stop-color="#000" stop-opacity="0"/></linearGradient><linearGradient id="linearGradient3810"><stop id="stop3812" offset="0" stop-color="#f2c66f" stop-opacity="1"/><stop id="stop3814" offset="1" stop-color="#fbd68f" stop-opacity="1"/></linearGradient><linearGradient id="linearGradient3816" x1="24" x2="24" y1="1046.362" y2="1014.362" gradientUnits="userSpaceOnUse" xlink:href="#linearGradient3810"/><radialGradient id="radialGradient3850" cx="24.076" cy="41.383" r="21.076" fx="24.076" fy="41.383" gradientTransform="matrix(1,0,0,0.11307633,0,36.703704)" gradientUnits="userSpaceOnUse" xlink:href="#linearGradient3844"/><linearGradient id="linearGradient3856" x1="24" x2="24" y1="1046.362" y2="1014.362" gradientTransform="translate(0,-3)" gradientUnits="userSpaceOnUse" xlink:href="#linearGradient3810"/><linearGradient id="linearGradient3858" x1="24" x2="24" y1="1046.362" y2="1014.362" gradientTransform="translate(0,-1004.3622)" gradientUnits="userSpaceOnUse" xlink:href="#linearGradient3810"/><linearGradient id="linearGradient3867" x1="1.995" x2="46.005" y1="28.563" y2="28.563" gradientUnits="userSpaceOnUse" xlink:href="#linearGradient3861"/><linearGradient id="linearGradient3921" x1="35" x2="38" y1="8" y2="5" gradientUnits="userSpaceOnUse" xlink:href="#linearGradient3915"/><linearGradient id="linearGradient3933" x1="35" x2="38" y1="8" y2="5" gradientTransform="matrix(1.0436562,0,0,1.2222222,26.301501,1003.2511)" gradientUnits="userSpaceOnUse" xlink:href="#linearGradient3915"/><linearGradient id="linearGradient3954" x1="35" x2="44" y1="11" y2="5" gradientTransform="translate(22,1004.3622)" gradientUnits="userSpaceOnUse" xlink:href="#linearGradient3915"/><linearGradient id="linearGradient3829" x1="21" x2="20" y1="14" y2="24" gradientUnits="userSpaceOnUse" xlink:href="#linearGradient3823"/><linearGradient id="linearGradient3839" x1="21" x2="20" y1="14" y2="26" gradientUnits="userSpaceOnUse" xlink:href="#linearGradient3833"/><linearGradient id="linearGradient3862" x1="22" x2="20" y1="15" y2="30" gradientUnits="userSpaceOnUse" xlink:href="#linearGradient3855"/><linearGradient id="linearGradient3862-1" x1="22" x2="20" y1="15" y2="30" gradientUnits="userSpaceOnUse" xlink:href="#linearGradient3855-7"/><linearGradient id="linearGradient3839-9" x1="21" x2="20" y1="14" y2="26" gradientUnits="userSpaceOnUse" xlink:href="#linearGradient3833-8"/><linearGradient id="linearGradient3829-2" x1="21" x2="20" y1="14" y2="24" gradientUnits="userSpaceOnUse" xlink:href="#linearGradient3823-4"/><linearGradient id="linearGradient3954-3" x1="35" x2="44" y1="11" y2="5" gradientTransform="translate(22,1004.3622)" gradientUnits="userSpaceOnUse" xlink:href="#linearGradient3915-2"/><linearGradient id="linearGradient3933-8" x1="35" x2="38" y1="8" y2="5" gradientTransform="matrix(1.0436562,0,0,1.2222222,26.301501,1003.2511)" gradientUnits="userSpaceOnUse" xlink:href="#linearGradient3915-2"/><linearGradient id="linearGradient3921-4" x1="35" x2="38" y1="8" y2="5" gradientUnits="userSpaceOnUse" xlink:href="#linearGradient3915-2"/><linearGradient id="linearGradient3867-4" x1="1.995" x2="46.005" y1="28.563" y2="28.563" gradientUnits="userSpaceOnUse" xlink:href="#linearGradient3861-5"/><linearGradient id="linearGradient3858-0" x1="24" x2="24" y1="1046.362" y2="1014.362" gradientTransform="translate(0,-1004.3622)" gradientUnits="userSpaceOnUse" xlink:href="#linearGradient3810-9"/><linearGradient id="linearGradient3856-6" x1="24" x2="24" y1="1046.362" y2="1014.362" gradientTransform="translate(0,-3)" gradientUnits="userSpaceOnUse" xlink:href="#linearGradient3810-9"/><linearGradient id="linearGradient3816-8" x1="24" x2="24" y1="1046.362" y2="1014.362" gradientUnits="userSpaceOnUse" xlink:href="#linearGradient3810-9"/><linearGradient id="linearGradient3810-9"><stop id="stop3812-6" offset="0" stop-color="#f2c66f" stop-opacity="1"/><stop id="stop3814-3" offset="1" stop-color="#fbd68f" stop-opacity="1"/></linearGradient><linearGradient id="linearGradient3844-6"><stop id="stop3846-9" offset="0" stop-color="#000" stop-opacity=".392"/><stop id="stop3848-5" offset="1" stop-color="#000" stop-opacity="0"/></linearGradient><linearGradient id="linearGradient3861-5"><stop id="stop3863-1" offset="0" stop-color="#000" stop-opacity="1"/><stop id="stop3865-2" offset="1" stop-color="#000" stop-opacity="0"/></linearGradient><linearGradient id="linearGradient3915-2"><stop id="stop3917-2" offset="0" stop-color="#f8f4e1" stop-opacity="1"/><stop id="stop3919-3" offset="1" stop-color="#ad9e57" stop-opacity="1"/></linearGradient><linearGradient id="linearGradient3956-2"><stop id="stop3958-9" offset="0" stop-color="#f8f4e1" stop-opacity="1"/><stop id="stop3960-6" offset="1" stop-color="#eae5c8" stop-opacity="1"/></linearGradient><linearGradient id="linearGradient3823-4"><stop id="stop3825-0" offset="0" stop-color="#49b7ef" stop-opacity="1"/><stop id="stop3827-5" offset="1" stop-color="#1d8de2" stop-opacity="1"/></linearGradient><linearGradient id="linearGradient3833-8"><stop id="stop3835-2" offset="0" stop-color="#fdfeff" stop-opacity="1"/><stop id="stop3837-7" offset="1" stop-color="#dfe4e4" stop-opacity="1"/></linearGradient><linearGradient id="linearGradient3855-7"><stop id="stop3857-6" offset="0" stop-color="#000" stop-opacity="1"/><stop id="stop3859-9" offset="1" stop-color="#000" stop-opacity=".294"/></linearGradient></defs><metadata id="metadata7"/><g id="layer3" transform="translate(0,48)"><path id="path3842" fill="url(#radialGradient3850)" fill-opacity="1" stroke="none" d="m 45.151344,41.38316 a 21.075672,2.3831596 0 1 1 -42.151344,0 21.075672,2.3831596 0 1 1 42.151344,0 z" transform="matrix(1.5657864,0,0,1.8882495,10.302641,-41.64173)"/></g><g id="layer1" transform="translate(0,-956.3622)"><path id="path3801" fill="none" stroke="none" d="m 50,983.36224 -10,6 6,0 z"/><rect id="rect3054" width="52" height="60" x="22" y="981.362" fill="#f07a64" fill-opacity="1" stroke="none" rx="2" ry="2"/><path id="path3861" fill="#f07a64" fill-opacity="1" stroke="none" d="m 38,967.36224 c -2,0 -4,2 -4,4 l 0,8 0,4 4,0 2,-4 0,-4 c 0,-2 2,-4 4,-4 l 8,0 c 2,0 4,2 4,4 l 0,4 0,4 6,0 0,-4 0,-8 c 0,-2 -2,-4 -4,-4 z"/><path id="path3824" fill="#ff8e78" fill-opacity="1" stroke="none" d="m 14,989.36224 c 0,-4 4,-10 6,-10 l 56,0 c 2,0 6,6 6,10 z"/><rect id="rect3826" width="8" height="40" x="30" y="995.362" fill="#b64f46" fill-opacity="1" stroke="none" rx="2" ry="2"/><rect id="rect3828" width="8" height="40" x="44" y="995.362" fill="#b64f46" fill-opacity="1" stroke="none" rx="2" ry="2"/><rect id="rect3830" width="8" height="40" x="58" y="995.362" fill="#b64f46" fill-opacity="1" stroke="none" rx="2" ry="2"/><rect id="rect3863" width="52" height="10" x="22" y="989.362" fill="#000" fill-opacity="1" stroke="none" opacity=".1"/></g></svg>