<svg xmlns="http://www.w3.org/2000/svg" xmlns:svg="http://www.w3.org/2000/svg" id="svg2" width="48" height="48" version="1.1" viewBox="0 0 13.547 13.547"><metadata id="metadata17"/><g id="g4182" transform="matrix(3.0000006,0,0,3.0000006,-1.0060385e-4,4.6996235e-7)"><path id="path4" fill="#cacaca" d="m 0.84668897,0.141111 2.214e-5,0.3292591 -0.42337785,0 c -0.0846667,2e-8 -0.14111113,0.0705556 -0.1410577,0.14111113 l -1.98e-5,3.76296927 c -3.363e-5,0.07055 0.0705219,0.1411056 0.1410775,0.141104 l 3.66888944,0 c 0.070556,1.6e-6 0.1411111,-0.070554 0.1410452,-0.1410773 L 4.233366,0.61148123 C 4.2333338,0.54092568 4.1627782,0.47037012 4.0922227,0.4703701 l -0.4232485,0 0,-0.32925913 C 3.6688893,-1.3457406e-7 3.6688893,-1.3457406e-7 3.5277781,-1.3457406e-7 l -0.3762637,0 c -0.1411111,0 -0.1411111,0 -0.1411111,0.14111113457406 l 0,0.28222226 -1.5051848,0 0,-0.28222226 c 0,-0.14111113457406 0,-0.14111113457406 -0.1411112,-0.14111113457406 l -0.37632952,0 c -0.14111113,0 -0.1410983,3.1901e-10 -0.14108881,0.14111113457406 z m 0.18815913,0.047037 0.2822222,0 0,0.56444434 c 0,0.23428788 -0.2822222,0.23428788 -0.2822222,0 z m 2.1637033,0 0.2822222,0 0,0.56444434 c 0,0.23428819 -0.2822222,0.23428819 -0.2822222,0 z M 0.56441076,1.411111 l 3.38666864,0 0,2.8222883 -3.38666864,-5.36e-5 z" color="#000"/><g id="text4155" fill="#3798d6" fill-opacity="1" stroke="none" stroke-linecap="butt" stroke-linejoin="miter" stroke-opacity="1" stroke-width="1" font-family="Ubuntu" font-size="1.607" font-stretch="normal" font-style="normal" font-variant="normal" font-weight="normal" letter-spacing="0" transform="scale(1.1417405,0.87585576)" word-spacing="0" style="line-height:125%;-inkscape-font-specification:Ubuntu"><path font-style="normal" style="-inkscape-font-specification:'droid sans Bold';text-align:center" id="path4153" fill="#3798d6" fill-opacity="1" d="m 1.5543798,4.2965312 0.6270075,-1.4469403 -0.8102866,0 0,-0.3135037 1.2154299,0 0,0.233922 -0.6426827,1.526522 -0.3894681,0 z" font-family="droid sans" font-size="2.469" font-stretch="normal" font-variant="normal" font-weight="bold" letter-spacing="-.028" text-anchor="middle" word-spacing=".056"/></g></g></svg>