<svg xmlns="http://www.w3.org/2000/svg" xmlns:svg="http://www.w3.org/2000/svg" id="svg2" width="24" height="24" version="1.1" viewBox="0 0 24 24"><metadata id="metadata30"/><path id="path4-5" fill="#3468ce" fill-opacity="1" d="m 5,0.9999996 c -0.472657,0 -1,0.527344 -1,1 L 4,22 c 0,0.445312 0.554687,1 1,1 l 14,0 c 0.445313,0 0.992367,-0.554753 1,-1 l 0,-15.0000004 -6,-6 z"/><path id="path6" fill="#000" fill-opacity=".196" d="M 15,6.9999996 20,12 20,6.9999996 z"/><path id="path8" fill="#fff" fill-opacity=".392" d="m 14,0.9999996 6,6 -5,0 c -0.445312,0 -1,-0.554688 -1,-1 z"/><rect id="rect3029" width="8" height="1" x="8" y="17" fill="#f9f9f9" fill-opacity="1" fill-rule="evenodd" stroke="none"/><rect id="rect3031" width="8" height="1" x="8" y="15" fill="#f9f9f9" fill-opacity="1" fill-rule="evenodd" stroke="none"/><rect id="rect3033" width="8" height="1" x="8" y="13" fill="#f9f9f9" fill-opacity="1" fill-rule="evenodd" stroke="none"/><rect id="rect3035" width="4" height="3" x="8" y="9" fill="#f9f9f9" fill-opacity="1" fill-rule="evenodd" stroke="none"/><rect id="rect3037" width="3" height="1" x="13" y="11" fill="#f9f9f9" fill-opacity="1" fill-rule="evenodd" stroke="none"/><rect id="rect3039" width="3" height="1" x="13" y="9" fill="#f9f9f9" fill-opacity="1" fill-rule="evenodd" stroke="none"/></svg>