<svg xmlns="http://www.w3.org/2000/svg" xmlns:svg="http://www.w3.org/2000/svg" id="svg2" width="24" height="24" version="1.1" viewBox="0 0 24 24"><metadata id="metadata32"/><path id="path4-5" fill="#dcdcdc" d="M 5,1 C 4.527343,1 4,1.527344 4,2 l 0,20 c 0,0.445312 0.554687,1 1,1 l 14,0 c 0.445313,0 0.992367,-0.554753 1,-1 L 20,7 14,1 z"/><path id="path6" fill="#000" fill-opacity=".196" d="m 15,7 5,5 0,-5 z"/><path id="path8" fill="#fff" fill-opacity=".392" d="m 14,1 6,6 -5,0 C 14.554688,7 14,6.445312 14,6 z"/><rect id="rect3029" width="8" height="1" x="8" y="17" fill="#888" fill-opacity="1" fill-rule="evenodd" stroke="none"/><rect id="rect3031" width="8" height="1" x="8" y="15" fill="#888" fill-opacity="1" fill-rule="evenodd" stroke="none"/><rect id="rect3033" width="8" height="1" x="8" y="13" fill="#888" fill-opacity="1" fill-rule="evenodd" stroke="none"/><rect id="rect3035" width="4" height="3" x="8" y="9" fill="#888" fill-opacity="1" fill-rule="evenodd" stroke="none"/><rect id="rect3037" width="3" height="1" x="13" y="11" fill="#888" fill-opacity="1" fill-rule="evenodd" stroke="none"/><rect id="rect3039" width="3" height="1" x="13" y="9" fill="#888" fill-opacity="1" fill-rule="evenodd" stroke="none"/></svg>