<svg xmlns="http://www.w3.org/2000/svg" xmlns:svg="http://www.w3.org/2000/svg" xmlns:xlink="http://www.w3.org/1999/xlink" id="svg2" width="32" height="32" version="1.1"><defs id="defs4"><linearGradient id="linearGradient3958"><stop id="stop3960" offset="0" stop-color="#000" stop-opacity="1"/><stop id="stop3962" offset="1" stop-color="#000" stop-opacity="0"/></linearGradient><radialGradient id="radialGradient3964" cx="32.5" cy="56.5" r="33.5" fx="32.5" fy="56.5" gradientTransform="matrix(1,0,0,0.10447761,0,50.597015)" gradientUnits="userSpaceOnUse" xlink:href="#linearGradient3958"/><radialGradient id="radialGradient3031" cx="32.5" cy="56.5" r="33.5" fx="32.5" fy="56.5" gradientTransform="matrix(1,0,0,0.10447761,0,50.597015)" gradientUnits="userSpaceOnUse" xlink:href="#linearGradient3958"/><radialGradient id="radialGradient3964-4" cx="32.5" cy="56.5" r="33.5" fx="32.5" fy="56.5" gradientTransform="matrix(1,0,0,0.10447761,0,50.597015)" gradientUnits="userSpaceOnUse" xlink:href="#linearGradient3958-4"/><linearGradient id="linearGradient3958-4"><stop id="stop3960-2" offset="0" stop-color="#000" stop-opacity="1"/><stop id="stop3962-1" offset="1" stop-color="#000" stop-opacity="0"/></linearGradient><radialGradient id="radialGradient3964-43" cx="32.5" cy="56.5" r="33.5" fx="32.5" fy="56.5" gradientTransform="matrix(1,0,0,0.10447761,0,50.597015)" gradientUnits="userSpaceOnUse" xlink:href="#linearGradient3958-5"/><linearGradient id="linearGradient3958-5"><stop id="stop3960-3" offset="0" stop-color="#000" stop-opacity="1"/><stop id="stop3962-8" offset="1" stop-color="#000" stop-opacity="0"/></linearGradient></defs><metadata id="metadata7"/><g id="layer1" transform="translate(0,-1020.3622)"><path id="path3956" fill="url(#radialGradient3031)" fill-opacity="1" stroke="none" d="m 66,56.5 a 33.5,3.5 0 1 1 -67,0 33.5,3.5 0 1 1 67,0 z" opacity=".3" transform="matrix(0.71641791,0,0,0.85714286,-7.2835821,999.9336)"/><path id="path3029" fill="#ef6c00" fill-opacity="1" stroke="none" d="m 0,1024.8917 0,21.4117 32,0 0,-10.7059 -1.523809,-9.1765 -11.976191,-0.059 -1.5,-3 -15.47619,0 C 0.761905,1023.362 0,1024.1267 0,1024.8915 z"/><rect id="rect3799" width="15.786" height="5.941" x="2.5" y="1027.362" fill="#fffdf0" fill-opacity="1" stroke="none"/><path id="path3790" fill="#000" fill-opacity="1" stroke="none" d="M 1.53125,1023.3622 C 0.769346,1023.3622 0,1024.1288 0,1024.8935 l 0,1 c 0,-0.7647 0.769346,-1.5313 1.53125,-1.5313 l 14.96875,0 1.5,3 12.46875,0.062 1.53125,9.1719 0,-1 -1.53125,-9.1719 -11.96875,-0.062 -1.5,-3 z" opacity=".03"/><path id="rect2987" fill="#ffa726" fill-opacity="1" stroke="none" d="m 32,1027.9505 0,21.4117 -32,0 0,-20 15,0 1.5,-3 13.976191,0.059 c 0.761904,0 1.523809,0.7648 1.523809,1.5295 z"/><path id="path3794" fill="#000" fill-opacity="1" stroke="none" d="m 0,1048.3622 0,1 32,0 0,-1 z" opacity=".15"/><path id="path3015" fill="#000" fill-opacity="1" stroke="none" d="m 16.5,1026.3622 -1.5,3 -15,0 0,1 15.5,0 1.5,-3 13.46875,0.062 c 0.761905,0 1.53125,0.7666 1.53125,1.5313 l 0,-1 c 0,-0.7647 -0.769345,-1.5313 -1.53125,-1.5313 z" opacity=".03"/><g id="g4064" opacity="1" transform="matrix(0.5,0,0,0.5,0.5,526.18112)"><path id="path3001" fill="#b17621" fill-opacity="1" stroke="none" d="m -4.9999999,8.2585173 c 0,0.9617941 -0.8161087,1.7414823 -1.8228298,1.7414823 -1.0067211,0 -1.8228299,-0.7796882 -1.8228299,-1.7414823 0,-0.9617942 0.8161088,-1.7414824 1.8228299,-1.7414824 1.0067211,0 1.8228298,0.7796882 1.8228298,1.7414824 z" transform="matrix(2.1943902,0,0,2.2968937,37.971951,1015.3933)"/><path id="path3003" fill="#b17621" fill-opacity="1" stroke="none" d="m -4.9999999,8.2585173 c 0,0.9617941 -0.8161087,1.7414823 -1.8228298,1.7414823 -1.0067211,0 -1.8228299,-0.7796882 -1.8228299,-1.7414823 0,-0.9617942 0.8161088,-1.7414824 1.8228299,-1.7414824 1.0067211,0 1.8228298,0.7796882 1.8228298,1.7414824 z" transform="matrix(2.1943902,0,0,2.2968937,53.971951,1015.3933)"/><rect id="rect3005" width="4" height="19" x="23" y="1017.362" fill="#b17621" fill-opacity="1" stroke="none" rx="1.917" ry="2"/><rect id="rect3007" width="4" height="20" x="39" y="1016.362" fill="#b17621" fill-opacity="1" stroke="none" rx="2" ry="2"/><rect id="rect3009" width="20" height="8" x="23" y="1014.362" fill="#b17621" fill-opacity="1" stroke="none" rx="4" ry="3.897"/></g></g></svg>