<svg xmlns="http://www.w3.org/2000/svg" xmlns:svg="http://www.w3.org/2000/svg" id="svg2" width="22" height="22" version="1.1" viewBox="0 0 22 22"><metadata id="metadata34"/><path id="path4" fill="#dcdcdc" d="M 4,0 C 3.527343,0 3,0.527344 3,1 l 0,20 c 0,0.445312 0.554687,1 1,1 l 14,0 c 0.445313,0 0.992367,-0.554753 1,-1 L 19,6 13,0 z"/><path id="path6" fill="#000" fill-opacity=".196" d="m 14,6 5,5 0,-5 z"/><path id="path8" fill="#fff" fill-opacity=".392" d="m 13,0 6,6 -5,0 C 13.554688,6 13,5.445312 13,5 z"/><path id="path16" fill="#888" d="m 6,11 0,1 10,0 0,-1 z"/><path id="path22" fill="#888" d="m 6,13 0,1 10,0 0,-1 z"/><path id="path28" fill="#888" d="m 6,17 0,1 10,0 0,-1 z"/><path id="path22-9" fill="#888" d="m 6,15 0,1 10,0 0,-1 z"/><path id="path16-6" fill="#888" d="m 6,9 0,1 10,0 0,-1 z"/></svg>