<svg xmlns="http://www.w3.org/2000/svg" xmlns:svg="http://www.w3.org/2000/svg" id="svg2" width="32" height="32" version="1.1" viewBox="0 0 32 32"><metadata id="metadata22"/><path id="path4-1" fill="#dcdcdc" fill-opacity="1" d="M 5.335888,2.97e-4 C 4.648414,3.119e-4 4,0.6767878 4,1.3940311 L 4,30.606268 C 4,31.282757 4.687474,32 5.335888,32 l 21.327332,0 c 0.648414,0 1.335888,-0.717243 1.335888,-1.393732 L 28,8.9999996 l -9,-9 z"/><path id="path6-4" fill="#000" fill-opacity=".196" d="M 21,8.9999996 28,16 28,8.9999996 z"/><path id="path8-6" fill="#fff" fill-opacity=".392" d="m 19.000306,2.97e-4 8.991594,8.9997026 -7.613262,0 c -0.672951,0 -1.378332,-0.7134896 -1.378332,-1.3864402 z"/><g id="g10" fill="#888" transform="matrix(1,0,0,1.0715781,0,-1.0020933)"><path id="path12" d="m 12,14 -4,3.732812 0,1.866406 4,3.732813 0,-2.799609 -2,-1.864453 2,-1.86836 z"/><path id="path14" d="m 20,14 4,3.732812 0,1.866406 -4,3.732813 0,-2.799609 2,-1.864453 -2,-1.86836 z"/><path id="path16" d="m 17,14 2,0 -4,9.332031 -2,0 z"/></g></svg>