<svg xmlns="http://www.w3.org/2000/svg" xmlns:svg="http://www.w3.org/2000/svg" id="svg2" width="32" height="32" version="1.1" viewBox="0 0 32 32"><metadata id="metadata10"/><path id="path2989" fill="#002b36" fill-opacity="1" stroke="none" stroke-linecap="butt" stroke-linejoin="miter" stroke-opacity="1" stroke-width="1" d="M 5,5 5,27 27,27 27,8 24,5 z"/><path id="path3759" fill="#93a1a1" fill-opacity="1" stroke="none" stroke-linecap="butt" stroke-linejoin="miter" stroke-opacity="1" stroke-width="1" d="m 13,5 0,6 9,0 0,-6 z"/><path id="path3761" fill="#eee8d5" fill-opacity="1" stroke="none" stroke-linecap="butt" stroke-linejoin="miter" stroke-opacity="1" stroke-width="1" d="m 8,13 0,14 16,0 0,-14 z"/><path id="path3763" fill="#002b36" fill-opacity="1" stroke="none" stroke-linecap="butt" stroke-linejoin="miter" stroke-opacity="1" stroke-width="1" d="m 21,6 -2,0 0,4 2,0 z"/><path id="path3765" fill="#002b36" fill-opacity="1" stroke="none" stroke-linecap="butt" stroke-linejoin="miter" stroke-opacity="1" stroke-width="1" d="m 9,17 0,1 14,0 0,-1 z"/><path id="path3767" fill="#002b36" fill-opacity="1" stroke="none" stroke-linecap="butt" stroke-linejoin="miter" stroke-opacity="1" stroke-width="1" d="m 9,22 0,1 14,0 0,-1 -14,0 z"/><path id="path3769" fill="#fdf6e3" fill-opacity=".249" stroke="none" stroke-linecap="butt" stroke-linejoin="miter" stroke-opacity="1" stroke-width="1" d="m 25,27 -2,0 0,-22 1,0 1,1 z"/></svg>