<svg xmlns="http://www.w3.org/2000/svg" xmlns:svg="http://www.w3.org/2000/svg" id="svg2" width="22" height="22" version="1.1" viewBox="0 0 6.209 6.209"><metadata id="metadata17"/><path id="path4" fill="#cacaca" d="m 1.1642656,0.19402711 0,0.46566681 -0.51176782,0 c -0.11641673,0 -0.19402784,0.0970145 -0.19395437,0.1940278 l -2.723e-5,5.16114838 c -4.624e-5,0.097006 0.0969676,0.1940202 0.1939816,0.194018 l 4.90361112,0 c 0.097015,2.2e-6 0.1940278,-0.097012 0.1939372,-0.1939813 L 5.750181,0.85372172 C 5.7501367,0.75670792 5.653123,0.65969392 5.5561089,0.65969392 l -0.5113145,0 0,-0.46566694 C 5.0446777,-8.2504714e-7 5.0446777,-8.2504714e-7 4.8506498,-8.2504714e-7 l -0.5044724,0 c -0.1940278,0 -0.1940278,0 -0.1940278,0.19402793504714 l 0,0.37041734 -2.0955007,0 0,-0.37041734 c 0,-0.19402793504714 0,-0.19402793504714 -0.1940279,-0.19402793504714 l -0.5044724,0 c -0.1940278,0 -0.193883,0 -0.193883,0.19402793504714 z m 0.2583003,0.0644174 0.3756378,0 0,0.77760389 c 0,0.3221459 -0.3756378,0.3221459 -0.3756378,0 z m 2.9880288,0 0.3756378,0 0,0.77760349 c 0,0.3221463 -0.3756378,0.3221463 -0.3756378,0 z m -3.56411531,1.68183309 4.51555751,0 0,3.8806472 -4.51555751,-7.37e-5 z" color="#000"/><g id="text4155" fill="#3798d6" fill-opacity="1" stroke="none" stroke-linecap="butt" stroke-linejoin="miter" stroke-opacity="1" stroke-width="1" font-family="Ubuntu" font-size="3.038" font-stretch="normal" font-style="normal" font-variant="normal" font-weight="normal" letter-spacing="0" transform="scale(1.1417405,0.87585576)" word-spacing="0" style="line-height:125%;-inkscape-font-specification:Ubuntu"><path font-style="normal" style="-inkscape-font-specification:'droid sans Bold';text-align:center" id="path4142" fill="#3798d6" fill-opacity="1" d="m 3.5545913,5.8000417 -1.62633,0 0,-0.3564332 0.5702931,-0.6150544 q 0.1077588,-0.116048 0.1956238,-0.2138599 0.087865,-0.097812 0.1508624,-0.1906503 0.062998,-0.092838 0.097812,-0.1889925 0.034814,-0.096154 0.034814,-0.2072286 0,-0.1226793 -0.074602,-0.1906503 -0.072945,-0.067971 -0.1972816,-0.067971 -0.1309685,0 -0.25199,0.064655 -0.1210215,0.064655 -0.2536478,0.1840189 L 1.92163,3.6879679 q 0.074602,-0.067971 0.1558359,-0.1293106 0.081234,-0.062998 0.1790455,-0.1110745 0.097812,-0.048077 0.2155177,-0.07626 0.1177059,-0.029841 0.2635948,-0.029841 0.174072,0 0.3116718,0.048077 0.1392576,0.048077 0.2370695,0.1375997 0.097812,0.087865 0.1492046,0.2138599 0.05305,0.125995 0.05305,0.2834888 0,0.1425732 -0.049735,0.2735417 Q 3.3871506,4.4273595 3.3009435,4.5533545 3.2147364,4.6776917 3.1003462,4.8020288 2.9876138,4.9247081 2.8583032,5.0523609 l -0.2917778,0.2934357 0,0.02321 0.9880659,0 0,0.4310355 z" font-family="droid sans" font-size="3.395" font-stretch="normal" font-variant="normal" font-weight="bold" letter-spacing=".023" text-anchor="middle" word-spacing=".023"/></g></svg>