<svg xmlns="http://www.w3.org/2000/svg" viewBox="0 0 64 64"><g><g transform="matrix(3.625,0,0,3.625,3,3)"><rect width="4" height="4" y="6" fill="#b4b4b4" fill-opacity="1" stroke="none" opacity="1" rx="1"/><rect width="4" height="4" x="12" y="6" fill="#b4b4b4" fill-opacity="1" stroke="none" opacity="1" rx="1"/><rect width="4" height="4" x="6" fill="#b4b4b4" fill-opacity="1" stroke="none" opacity="1" rx="1"/><rect width="4" height="4" x="6" y="12" fill="#b4b4b4" fill-opacity="1" stroke="none" opacity="1" rx="1"/><rect width="4" height="4" x="3.314" y="-2" fill="#b4b4b4" fill-opacity="1" stroke="none" opacity="1" rx="1" transform="matrix(0.70710678,0.70710678,-0.70710678,0.70710678,0,0)"/><rect width="4" height="4" x="15.314" y="-2" fill="#b4b4b4" fill-opacity="1" stroke="none" opacity="1" rx="1" transform="matrix(0.70710678,0.70710678,-0.70710678,0.70710678,0,0)"/><rect width="4" height="4" x="9.314" y="-8" fill="#b4b4b4" fill-opacity="1" stroke="none" opacity="1" rx="1" transform="matrix(0.70710678,0.70710678,-0.70710678,0.70710678,0,0)"/><rect width="4" height="4" x="9.314" y="4" fill="#b4b4b4" fill-opacity="1" stroke="none" opacity="1" rx="1" transform="matrix(0.70710678,0.70710678,-0.70710678,0.70710678,0,0)"/></g></g><path fill="#b4b4b4" fill-opacity="1" stroke="none" d="M 32 8 A 24 24 0 0 0 8 32 24 24 0 0 0 32 56 24 24 0 0 0 56 32 24 24 0 0 0 32 8 m 0 13 A 11 11 0 0 1 43 32 11 11 0 0 1 32 43 11 11 0 0 1 21 32 11 11 0 0 1 32 21" opacity="1"/><path fill="#2aa198" fill-opacity="1" stroke="none" d="M 32 14 A 18 18 0 0 0 14 32 18 18 0 0 0 32 50 18 18 0 0 0 50 32 18 18 0 0 0 32 14 m 0 11 a 7 7 0 0 1 7 7 7 7 0 0 1 -7 7 7 7 0 0 1 -7 -7 7 7 0 0 1 7 -7 z" opacity="1"/></svg>