<svg xmlns="http://www.w3.org/2000/svg" xmlns:svg="http://www.w3.org/2000/svg" xmlns:xlink="http://www.w3.org/1999/xlink" id="svg2" width="64" height="64" version="1.1" viewBox="0 0 64 64"><metadata id="metadata98"/><defs id="defs4"><path id="SVGCleanerId_0" d="m 14,12 20,0 c 1.105,0 2,0.895 2,2 l 0,20 c 0,1.105 -0.895,2 -2,2 l -20,0 c -1.105,0 -2,-0.895 -2,-2 l 0,-20 c 0,-1.105 0.895,-2 2,-2 m 0,0"/></defs><use id="use72" width="100%" height="100%" x="0" y="0" fill="none" stroke="#af8566" stroke-dasharray="none" stroke-linecap="butt" stroke-linejoin="miter" stroke-miterlimit="4" stroke-opacity="1" stroke-width="2.88" transform="matrix(2.0833333,0,0,2.0833333,-17.999999,-17.999999)" xlink:href="#SVGCleanerId_0"/><use id="use74" width="100%" height="100%" x="0" y="0" fill="#fff4ab" fill-opacity="1" fill-rule="nonzero" stroke="none" transform="matrix(1.9999999,0,0,1.9999999,-15.999998,-15.999999)" xlink:href="#SVGCleanerId_0"/><path id="path84" fill="#e4d66a" fill-opacity="1" fill-rule="nonzero" stroke="none" d="m 8.0000009,43.999999 47.9999981,0 0,4 -47.9999981,0 z"/><path id="path84-3" fill="#e4d66a" fill-opacity="1" fill-rule="nonzero" stroke="none" d="m 8.0000013,32 47.9999977,0 0,3.999999 -47.9999977,0 z"/><path id="path84-3-9" fill="#e4d66a" fill-opacity="1" fill-rule="nonzero" stroke="none" d="m 8.0000013,20 47.9999977,0 0,4 -47.9999977,0 z"/><path id="path86" fill="#e6b2a9" fill-opacity="1" fill-rule="nonzero" stroke="none" d="M 20.000001,8 24,8 l 0,47.999999 -3.999999,0 z"/></svg>