<svg xmlns="http://www.w3.org/2000/svg" xmlns:svg="http://www.w3.org/2000/svg" id="svg2" width="256" height="256" version="1.1" viewBox="0 0 72.249 72.249"><metadata id="metadata17"/><path id="path4" fill="#cacaca" d="m 13.547806,2.2577928 0,5.418656 -6.7750212,0 c -1.3546676,0 -2.2577784,1.12896 -2.2569236,2.2577761 L 4.5155444,69.991231 c -5.38e-4,1.1288 1.1283504,2.257696 2.2572404,2.257664 l 58.7022452,0 c 1.128896,3.2e-5 2.257776,-1.1288 2.25672,-2.257232 L 67.73335,9.9342249 C 67.732806,8.8052648 66.603914,7.6764488 65.47503,7.6764488 l -6.77198,0 0,-5.418656 C 58.701694,8.289712e-7 58.701694,8.289712e-7 56.443914,8.289712e-7 l -5.870224,0 c -2.25778,0 -2.25778,0 -2.25778,2.2577919710288 l 0,4.515552 -24.384006,0 0,-4.515552 c 0,-2.2577919710288 0,-2.2577919710288 -2.257782,-2.2577919710288 l -5.870223,0 c -2.257779,0 -2.256093,0 -2.256093,2.2577919710288 z m 3.005676,0.7496 4.371058,0 0,9.0484802 c 0,3.748608 -4.371058,3.748608 -4.371058,0 z m 34.769788,0 4.37106,0 0,9.0484802 c 0,3.748608 -4.37106,3.748608 -4.37106,0 z M 9.0300252,22.577829 l 54.1867088,0 0,45.156618 -54.1867088,-8.64e-4 z" color="#000"/><g id="text4155" fill="#3798d6" fill-opacity="1" stroke="none" stroke-linecap="butt" stroke-linejoin="miter" stroke-opacity="1" stroke-width="1" font-family="Ubuntu" font-size="25.714" font-stretch="normal" font-style="normal" font-variant="normal" font-weight="normal" letter-spacing="0" transform="scale(1.1417405,0.87585576)" word-spacing="0" style="line-height:125%;-inkscape-font-specification:Ubuntu"><path font-style="normal" style="-inkscape-font-specification:'droid sans Bold';text-align:center" id="path4142" fill="#3798d6" fill-opacity="1" d="m 22.342278,56.763854 q 0,-2.025717 0.212218,-4.032141 0.231511,-2.006424 0.790994,-3.839215 0.578777,-1.852084 1.543404,-3.434073 0.983919,-1.581988 2.469445,-2.739541 1.504818,-1.176845 3.588412,-1.832791 2.102887,-0.675239 4.900306,-0.675239 0.405143,0 0.887457,0.01929 0.482313,0.01929 0.964627,0.05788 0.501606,0.01929 0.964627,0.07717 0.463021,0.05788 0.829579,0.135047 l 0,4.765258 q -0.733117,-0.173633 -1.562696,-0.270096 -0.810287,-0.115755 -1.639866,-0.115755 -2.604493,0 -4.282944,0.655946 -1.678451,0.636654 -2.66237,1.794207 -0.98392,1.157552 -1.408356,2.778126 -0.405143,1.620573 -0.501606,3.588412 l 0.23151,0 q 0.385851,-0.694531 0.926042,-1.2926 0.559484,-0.617361 1.292601,-1.041797 0.733116,-0.443729 1.639866,-0.694532 0.926042,-0.250803 2.064301,-0.250803 1.832792,0 3.299025,0.598069 1.466233,0.598069 2.469445,1.736329 1.022505,1.13826 1.562696,2.797418 0.540191,1.659159 0.540191,3.800631 0,2.295812 -0.655946,4.109311 -0.636654,1.813499 -1.832792,3.086806 -1.196137,1.254016 -2.893881,1.929255 -1.697743,0.655946 -3.819923,0.655946 -2.083594,0 -3.897093,-0.733117 -1.813499,-0.752409 -3.163977,-2.276519 -1.331185,-1.524111 -2.102887,-3.839216 -0.752409,-2.334398 -0.752409,-5.517667 z m 9.800611,7.601261 q 0.790994,0 1.427648,-0.289388 0.655946,-0.30868 1.118967,-0.906749 0.482314,-0.617362 0.733117,-1.543403 0.270095,-0.926042 0.270095,-2.19935 0,-2.064302 -0.868164,-3.241147 -0.848872,-1.196138 -2.604493,-1.196138 -0.887457,0 -1.620573,0.347266 -0.733117,0.347266 -1.254015,0.90675 -0.520899,0.559483 -0.810287,1.254015 -0.270096,0.694531 -0.270096,1.408355 0,0.98392 0.231511,1.967839 0.250803,0.964627 0.733116,1.755622 0.501606,0.771701 1.21543,1.254015 0.733117,0.482313 1.697744,0.482313 z" font-family="droid sans" font-size="39.511" font-stretch="normal" font-variant="normal" font-weight="bold" letter-spacing="-.452" text-anchor="middle" word-spacing=".903"/></g></svg>