<svg xmlns="http://www.w3.org/2000/svg" xmlns:svg="http://www.w3.org/2000/svg" id="svg2" width="16" height="16" version="1.1" viewBox="0 0 4.516 4.516"><metadata id="metadata17"/><path id="path4" fill="#cacaca" d="m 0.84677197,0.141111 0,0.33866671 -0.42343871,0 c -0.0846667,2e-8 -0.14111113,0.0705556 -0.1410577,0.14111113 l -1.98e-5,3.75356166 c -3.363e-5,0.07055 0.0705219,0.1411056 0.1410775,0.141104 l 3.66888944,0 c 0.070556,1.6e-6 0.1411111,-0.070554 0.1410452,-0.1410773 L 4.233366,0.62088884 C 4.2333338,0.55033329 4.1627782,0.47977773 4.0922227,0.47977771 l -0.4232485,0 0,-0.33866674 C 3.6688893,-1.3457406e-7 3.6688893,-1.3457406e-7 3.5277781,-1.3457406e-7 l -0.3668889,0 c -0.1411111,0 -0.1411111,0 -0.1411111,0.14111113457406 l 0,0.28222226 -1.5240002,0 0,-0.28222226 c 0,-0.14111113457406 0,-0.14111113457406 -0.1411112,-0.14111113457406 l -0.36688892,0 c -0.14111113,0 -0.14100581,0 -0.14100581,0.14111113457406 z m 0.18785473,0.0468489 0.2731911,0 0,0.56553 c 0,0.23428788 -0.2731911,0.23428788 -0.2731911,0 z m 2.1731114,-1e-8 0.2731911,0 0,0.5655297 c 0,0.23428819 -0.2731911,0.23428819 -0.2731911,0 z M 0.56441076,1.411111 l 3.38666864,0 0,2.8222883 -3.38666864,-5.36e-5 z" color="#000"/><g id="text4155" fill="#3798d6" fill-opacity="1" stroke="none" stroke-linecap="butt" stroke-linejoin="miter" stroke-opacity="1" stroke-width="1" font-family="Ubuntu" font-size="1.607" font-stretch="normal" font-style="normal" font-variant="normal" font-weight="normal" letter-spacing="0" transform="scale(1.1417405,0.87585576)" word-spacing="0" style="line-height:125%;-inkscape-font-specification:Ubuntu"><path font-style="normal" style="-inkscape-font-specification:'droid sans Bold';text-align:center" id="path4142" fill="#3798d6" fill-opacity="1" d="m 2.0258412,3.1703293 q 0.1133437,0 0.2110121,0.034968 0.097669,0.034968 0.1700155,0.1024916 0.072347,0.067524 0.1133437,0.1688097 0.040997,0.10008 0.040997,0.2303046 0,0.1434883 -0.044614,0.2580377 -0.044614,0.1133437 -0.1314304,0.1929254 -0.086816,0.078376 -0.2158352,0.1205783 -0.1278131,0.042203 -0.2942112,0.042203 -0.066318,0 -0.1314304,-0.00603 Q 1.6785755,4.308589 1.6182864,4.2965312 1.559203,4.2856791 1.5049427,4.2675924 1.4518882,4.2495056 1.40848,4.22539 l 0,-0.3219442 q 0.042202,0.024116 0.097668,0.04582 0.055466,0.020498 0.1145494,0.036173 0.060289,0.014469 0.1205784,0.024116 0.060289,0.00844 0.1145494,0.00844 0.161575,0 0.2459799,-0.066318 0.084405,-0.067524 0.084405,-0.2134237 0,-0.1302246 -0.083199,-0.1977485 -0.081993,-0.06873 -0.2544204,-0.06873 -0.03135,0 -0.067524,0.00362 -0.034968,0.00362 -0.069935,0.00965 -0.033762,0.00603 -0.065112,0.013264 -0.03135,0.00603 -0.05426,0.013264 l -0.1483114,-0.079582 0.066318,-0.8983088 0.930865,0 0,0.3159153 -0.607715,0 -0.028939,0.3460599 q 0.038585,-0.00844 0.089228,-0.016881 0.051849,-0.00844 0.1326362,-0.00844 z" font-family="droid sans" font-size="2.469" font-stretch="normal" font-variant="normal" font-weight="bold" letter-spacing="-.028" text-anchor="middle" word-spacing=".056"/></g></svg>