<svg xmlns="http://www.w3.org/2000/svg" xmlns:svg="http://www.w3.org/2000/svg" id="svg2" width="16" height="16" version="1.1" viewBox="0 0 4.516 4.516"><metadata id="metadata17"/><path id="path4" fill="#cacaca" d="m 0.84677197,0.141111 0,0.33866671 -0.42343871,0 c -0.0846667,2e-8 -0.14111113,0.0705556 -0.1410577,0.14111113 l -1.98e-5,3.75356166 c -3.363e-5,0.07055 0.0705219,0.1411056 0.1410775,0.141104 l 3.66888944,0 c 0.070556,1.6e-6 0.1411111,-0.070554 0.1410452,-0.1410773 L 4.233366,0.62088884 C 4.2333338,0.55033329 4.1627782,0.47977773 4.0922227,0.47977771 l -0.4232485,0 0,-0.33866674 C 3.6688893,-1.3457406e-7 3.6688893,-1.3457406e-7 3.5277781,-1.3457406e-7 l -0.3668889,0 c -0.1411111,0 -0.1411111,0 -0.1411111,0.14111113457406 l 0,0.28222226 -1.5240002,0 0,-0.28222226 c 0,-0.14111113457406 0,-0.14111113457406 -0.1411112,-0.14111113457406 l -0.36688892,0 c -0.14111113,0 -0.14100581,0 -0.14100581,0.14111113457406 z m 0.18785473,0.0468489 0.2731911,0 0,0.56553 c 0,0.23428788 -0.2731911,0.23428788 -0.2731911,0 z m 2.1731114,-1e-8 0.2731911,0 0,0.5655297 c 0,0.23428819 -0.2731911,0.23428819 -0.2731911,0 z M 0.56441076,1.411111 l 3.38666864,0 0,2.8222883 -3.38666864,-5.36e-5 z" color="#000"/><g id="text4155" fill="#3798d6" fill-opacity="1" stroke="none" stroke-linecap="butt" stroke-linejoin="miter" stroke-opacity="1" stroke-width="1" font-family="Ubuntu" font-size="1.607" font-stretch="normal" font-style="normal" font-variant="normal" font-weight="normal" letter-spacing="0" transform="scale(1.1417405,0.87585576)" word-spacing="0" style="line-height:125%;-inkscape-font-specification:Ubuntu"><path font-style="normal" style="-inkscape-font-specification:'droid sans Bold';text-align:center" id="path4142" fill="#3798d6" fill-opacity="1" d="m 2.6130578,3.9311788 -0.2122179,0 0,0.3653524 -0.3629409,0 0,-0.3653524 -0.7282932,0 0,-0.2592435 0.7487916,-1.1382597 0.3424425,0 0,1.1081151 0.2122179,0 0,0.2893881 z M 2.037899,3.6417907 l 0,-0.2990343 q 0,-0.015675 0,-0.044614 0.00121,-0.030145 0.00241,-0.067524 0.00121,-0.037379 0.00241,-0.07717 0.00241,-0.039791 0.00362,-0.075964 0.00241,-0.036174 0.00362,-0.062701 0.00241,-0.027733 0.00362,-0.039791 l -0.010852,0 q -0.021704,0.050643 -0.049437,0.1073147 -0.026527,0.056672 -0.061495,0.1133437 l -0.2942112,0.4461399 0.4003201,0 z" font-family="droid sans" font-size="2.469" font-stretch="normal" font-variant="normal" font-weight="bold" letter-spacing="-.028" text-anchor="middle" word-spacing=".056"/></g></svg>