<svg xmlns="http://www.w3.org/2000/svg" viewBox="0 0 16 16"><g transform="translate(0,-1036.3622)"><path fill="#ff9800" fill-opacity="1" stroke="none" d="m -5 8.259 c 0 0.962 -0.816 1.741 -1.823 1.741 -1.01 0 -1.823 -0.78 -1.823 -1.741 0 -0.962 0.816 -1.741 1.823 -1.741 1.01 0 1.823 0.78 1.823 1.741 z" transform="matrix(1.6457927,0,0,1.7226703,14.228963,1035.1355)"/><path fill="#ff9800" fill-opacity="1" stroke="none" d="m -5 8.259 c 0 0.962 -0.816 1.741 -1.823 1.741 -1.01 0 -1.823 -0.78 -1.823 -1.741 0 -0.962 0.816 -1.741 1.823 -1.741 1.01 0 1.823 0.78 1.823 1.741 z" transform="matrix(1.6457927,0,0,1.7226703,24.228964,1035.1355)"/><rect width="2" height="12" x="4" y="1038.36" fill="#ff9800" fill-opacity="1" stroke="none" rx="1"/><rect width="2" height="12" x="14" y="1038.36" fill="#ff9800" fill-opacity="1" stroke="none" rx="1"/><rect width="12" height="5" x="4" y="1036.36" fill="#ff9800" fill-opacity="1" stroke="none" rx="2"/></g></svg>