<svg xmlns="http://www.w3.org/2000/svg" xmlns:svg="http://www.w3.org/2000/svg" xmlns:xlink="http://www.w3.org/1999/xlink" id="svg2" width="16" height="16" version="1.1" viewBox="0 0 16 16"><metadata id="metadata20"/><defs id="defs18"><linearGradient id="linearGradient3794"><stop id="stop3796" offset="0" stop-color="#000" stop-opacity="1"/><stop id="stop3798" offset="1" stop-color="#000" stop-opacity="0"/></linearGradient><radialGradient id="radialGradient3800" cx="8" cy="14.313" r="8" fx="8" fy="14.313" gradientTransform="matrix(1,0,0,0.16407123,0,11.964289)" gradientUnits="userSpaceOnUse" xlink:href="#linearGradient3794"/></defs><path id="path3792" fill="url(#radialGradient3800)" fill-opacity="1" stroke="none" d="m 16,14.31257 a 8,1.3125699 0 1 1 -16,0 8,1.3125699 0 1 1 16,0 z" opacity=".35" transform="matrix(1,0,0,1.1427963,0,-1.8563516)"/><path id="path3776" fill="#f07a64" fill-opacity="1" stroke="none" d="M 6.7954545,0 C 6.251496,0 6,0.5 6,1 l 0,1 0,1 1,0 0,-0.999786 0,-0.5 c 0,-0.515619 0.054854,-0.5 1,-0.5 l 1,0 c 1,0 1,0 1,0.5 l 0,0.5 L 10,3 11,3 11,2 11,1 C 11,0.5 10.771933,0 10.204546,0 z"/><rect id="rect3054" width="10" height="12" x="3" y="3" fill="#f07a64" fill-opacity="1" stroke="none" rx="1" ry="1"/><path id="path3824" fill="#ff8e78" fill-opacity="1" stroke="none" d="M 0,5 C 0,3 2,2 3,2 l 10,0 c 1,0 3,1 3,3 z"/><rect id="rect3826" width="2" height="6" x="4" y="7" fill="#b64f46" fill-opacity="1" stroke="none" rx=".5" ry=".5"/><rect id="rect3863" width="10" height="4" x="3" y="5" fill="#000" fill-opacity="1" stroke="none" opacity=".1"/><rect id="rect3013" width="2" height="6" x="7" y="7" fill="#b64f46" fill-opacity="1" stroke="none" rx=".5" ry=".5"/><rect id="rect3015" width="2" height="6" x="10" y="7" fill="#b64f46" fill-opacity="1" stroke="none" rx=".5" ry=".5"/></svg>