<svg xmlns="http://www.w3.org/2000/svg" viewBox="0 0 24 24"><g><g transform="matrix(1.375,0,0,1.375,1,1)"><rect width="4" height="4" y="6" fill="#b4b4b4" fill-opacity="1" stroke="none" opacity="1" rx="1"/><rect width="4" height="4" x="12" y="6" fill="#b4b4b4" fill-opacity="1" stroke="none" opacity="1" rx="1"/><rect width="4" height="4" x="6" fill="#b4b4b4" fill-opacity="1" stroke="none" opacity="1" rx="1"/><rect width="4" height="4" x="6" y="12" fill="#b4b4b4" fill-opacity="1" stroke="none" opacity="1" rx="1"/><rect width="4" height="4" x="3.314" y="-2" fill="#b4b4b4" fill-opacity="1" stroke="none" opacity="1" rx="1" transform="matrix(0.70710678,0.70710678,-0.70710678,0.70710678,0,0)"/><rect width="4" height="4" x="15.314" y="-2" fill="#b4b4b4" fill-opacity="1" stroke="none" opacity="1" rx="1" transform="matrix(0.70710678,0.70710678,-0.70710678,0.70710678,0,0)"/><rect width="4" height="4" x="9.314" y="-8" fill="#b4b4b4" fill-opacity="1" stroke="none" opacity="1" rx="1" transform="matrix(0.70710678,0.70710678,-0.70710678,0.70710678,0,0)"/><rect width="4" height="4" x="9.314" y="4" fill="#b4b4b4" fill-opacity="1" stroke="none" opacity="1" rx="1" transform="matrix(0.70710678,0.70710678,-0.70710678,0.70710678,0,0)"/><path fill="#b4b4b4" fill-opacity="1" stroke="none" d="M 8 1.5 A 6.5 6.5 0 0 0 1.5 8 6.5 6.5 0 0 0 8 14.5 6.5 6.5 0 0 0 14.5 8 6.5 6.5 0 0 0 8 1.5 M 8 5 A 3 3 0 0 1 11 8 3 3 0 0 1 8 11 3 3 0 0 1 5 8 3 3 0 0 1 8 5" opacity="1"/></g></g><path fill="#2aa198" fill-opacity="1" stroke="none" d="M 12 5.5 A 6.5 6.5 0 0 0 5.5 12 A 6.5 6.5 0 0 0 12 18.5 A 6.5 6.5 0 0 0 18.5 12 A 6.5 6.5 0 0 0 12 5.5 z M 12 9 A 3 3 0 0 1 15 12 A 3 3 0 0 1 12 15 A 3 3 0 0 1 9 12 A 3 3 0 0 1 12 9 z" opacity="1"/></svg>