<svg xmlns="http://www.w3.org/2000/svg" enable-background="new 0 0 1024 1024" image-rendering="optimizeSpeed" viewBox="0 0 16 16"><rect width=".8" height="1.8" x="13.2" y="4.2" fill="#8e8e8e" fill-opacity="1" fill-rule="nonzero" stroke="none" opacity="1" rx=".244"/><path fill="#464646" fill-opacity="1" fill-rule="nonzero" stroke="none" d="m 4 0 9.5 0 c 0.277 0 0.5 0.223 0.5 0.5 l 0 3.5 -0.5 0 0 4 0.5 0 0 7.5 c 0 0.277 -0.223 0.5 -0.5 0.5 l -4.5 0 -0.2 -0.5 -1.6 0 -0.2 0.5 -4.5 0 c -0.277 0 -0.5 -0.223 -0.5 -0.5 l 0 -9.5 l 0.5 0 l 0 -1 -0.5 0 0 -3 z" opacity="1"/><rect width="1" height="3" x="3.5" y="2" fill="#ffd642" fill-opacity="1" fill-rule="nonzero" stroke="none" opacity="1" rx=".2"/><rect width="1" height="4" x="5.5" y="1" fill="#ffd642" fill-opacity="1" fill-rule="nonzero" stroke="none" opacity="1" rx=".2"/><rect width="1" height="4" x="7.5" y="1" fill="#ffd642" fill-opacity="1" fill-rule="nonzero" stroke="none" opacity="1" rx=".2"/><rect width="1" height="4" x="9.5" y="1" fill="#ffd642" fill-opacity="1" fill-rule="nonzero" stroke="none" opacity="1" rx=".2"/><rect width="1" height="4" x="11.5" y="1" fill="#ffd642" fill-opacity="1" fill-rule="nonzero" stroke="none" opacity="1" rx=".2"/><rect width="1" height="16" x="11" fill="#faf2f2" fill-opacity="1" fill-rule="nonzero" stroke="none" opacity=".2"/></svg>