<svg xmlns="http://www.w3.org/2000/svg" xmlns:svg="http://www.w3.org/2000/svg" xmlns:xlink="http://www.w3.org/1999/xlink" id="svg2" width="128" height="128" version="1.1" viewBox="0 0 128 128"><metadata id="metadata20"/><defs id="defs18"><radialGradient id="radialGradient3898" cx="33" cy="59" r="27" fx="33" fy="59" gradientTransform="matrix(1,0,0,0.18518519,0,48.074074)" gradientUnits="userSpaceOnUse" xlink:href="#linearGradient3892"/><linearGradient id="linearGradient3855"><stop id="stop3857" offset="0" stop-color="#000" stop-opacity="1"/><stop id="stop3859" offset="1" stop-color="#000" stop-opacity=".294"/></linearGradient><linearGradient id="linearGradient3833"><stop id="stop3835" offset="0" stop-color="#fdfeff" stop-opacity="1"/><stop id="stop3837" offset="1" stop-color="#dfe4e4" stop-opacity="1"/></linearGradient><linearGradient id="linearGradient3823"><stop id="stop3825" offset="0" stop-color="#49b7ef" stop-opacity="1"/><stop id="stop3827" offset="1" stop-color="#1d8de2" stop-opacity="1"/></linearGradient><linearGradient id="linearGradient3956"><stop id="stop3958" offset="0" stop-color="#f8f4e1" stop-opacity="1"/><stop id="stop3960" offset="1" stop-color="#eae5c8" stop-opacity="1"/></linearGradient><linearGradient id="linearGradient3915"><stop id="stop3917" offset="0" stop-color="#f8f4e1" stop-opacity="1"/><stop id="stop3919" offset="1" stop-color="#ad9e57" stop-opacity="1"/></linearGradient><linearGradient id="linearGradient3861"><stop id="stop3863" offset="0" stop-color="#000" stop-opacity="1"/><stop id="stop3865" offset="1" stop-color="#000" stop-opacity="0"/></linearGradient><linearGradient id="linearGradient3844"><stop id="stop3846" offset="0" stop-color="#000" stop-opacity=".392"/><stop id="stop3848" offset="1" stop-color="#000" stop-opacity="0"/></linearGradient><linearGradient id="linearGradient3810"><stop id="stop3812" offset="0" stop-color="#f2c66f" stop-opacity="1"/><stop id="stop3814" offset="1" stop-color="#fbd68f" stop-opacity="1"/></linearGradient><linearGradient id="linearGradient3816" x1="24" x2="24" y1="1046.362" y2="1014.362" gradientUnits="userSpaceOnUse" xlink:href="#linearGradient3810"/><linearGradient id="linearGradient3856" x1="24" x2="24" y1="1046.362" y2="1014.362" gradientTransform="translate(0,-3)" gradientUnits="userSpaceOnUse" xlink:href="#linearGradient3810"/><linearGradient id="linearGradient3858" x1="24" x2="24" y1="1046.362" y2="1014.362" gradientTransform="translate(0,-1004.3622)" gradientUnits="userSpaceOnUse" xlink:href="#linearGradient3810"/><linearGradient id="linearGradient3867" x1="1.995" x2="46.005" y1="28.563" y2="28.563" gradientUnits="userSpaceOnUse" xlink:href="#linearGradient3861"/><linearGradient id="linearGradient3921" x1="35" x2="38" y1="8" y2="5" gradientUnits="userSpaceOnUse" xlink:href="#linearGradient3915"/><linearGradient id="linearGradient3933" x1="35" x2="38" y1="8" y2="5" gradientTransform="matrix(1.0436562,0,0,1.2222222,26.301501,1003.2511)" gradientUnits="userSpaceOnUse" xlink:href="#linearGradient3915"/><linearGradient id="linearGradient3954" x1="35" x2="44" y1="11" y2="5" gradientTransform="translate(22,1004.3622)" gradientUnits="userSpaceOnUse" xlink:href="#linearGradient3915"/><linearGradient id="linearGradient3829" x1="21" x2="20" y1="14" y2="24" gradientUnits="userSpaceOnUse" xlink:href="#linearGradient3823"/><linearGradient id="linearGradient3839" x1="21" x2="20" y1="14" y2="26" gradientUnits="userSpaceOnUse" xlink:href="#linearGradient3833"/><linearGradient id="linearGradient3862" x1="22" x2="20" y1="15" y2="30" gradientUnits="userSpaceOnUse" xlink:href="#linearGradient3855"/><linearGradient id="linearGradient3892"><stop id="stop3894" offset="0" stop-color="#000" stop-opacity="1"/><stop id="stop3896" offset="1" stop-color="#000" stop-opacity="0"/></linearGradient><radialGradient id="radialGradient3295" cx="33" cy="59" r="27" fx="33" fy="59" gradientTransform="matrix(1,0,0,0.18518519,0,48.074074)" gradientUnits="userSpaceOnUse" xlink:href="#linearGradient3892"/><radialGradient id="radialGradient3306" cx="33" cy="59" r="27" fx="33" fy="59" gradientTransform="matrix(1,0,0,0.18518519,0,48.074074)" gradientUnits="userSpaceOnUse" xlink:href="#linearGradient3892"/></defs><path id="path3114" fill="url(#radialGradient3306)" fill-opacity="1" stroke="none" d="M 60,59 A 27,5 0 1 1 6,59 27,5 0 1 1 60,59 z" opacity=".6" transform="matrix(1.8518519,0,0,2,2.8888886,1)"/><path id="path3801" fill="none" stroke="none" d="m 67.05886,29.945885 -15.29413,9.729743 9.17649,0 z"/><rect id="rect3054" width="80" height="98" x="24" y="26" fill="#8f98a8" fill-opacity="1" stroke="none" rx="3" ry="3"/><path id="path3861" fill="#8f98a8" fill-opacity="1" stroke="none" d="m 48.00003,4 c -3.05882,0 -6.00001,3.2431545 -6.00001,6.486401 l 0,17.513618 0.58824,5.945869 6.11765,0 3.29412,-6.486493 0,-10.486499 c 0,-3.243248 2.82354,-6.972891 5.88237,-6.972891 l 12.23529,0 c 3.05884,0 5.88236,3.729643 5.88236,6.972891 l 0,10.486499 0,6.486493 9.41177,0 0.58824,-5.945869 0,-18.000014 C 86.00006,6.7567581 83.05888,4 80.00005,4 z"/><path id="path3824" fill="#b0b6c5" fill-opacity="1" stroke="none" d="m 12,40.000028 c 0,-6.400005 6.11764,-16.000012 9.17647,-16.000012 l 85.64714,0 c 3.05883,0 9.17647,9.600007 9.17647,16.000012 z"/><rect id="rect3826" width="12" height="64" x="36" y="50" fill="#687385" fill-opacity="1" stroke="none" rx="3" ry="3"/><rect id="rect3110" width="12" height="64" x="58" y="50" fill="#687385" fill-opacity="1" stroke="none" rx="3" ry="3"/><rect id="rect3112" width="12" height="64" x="80" y="50" fill="#687385" fill-opacity="1" stroke="none" rx="3" ry="3"/><rect id="rect3863" width="80" height="16" x="24" y="40" fill="#000" fill-opacity="1" stroke="none" opacity=".1"/></svg>